<svg width="121" height="81" viewBox="0 0 121 81" fill="none" xmlns="http://www.w3.org/2000/svg">
<path d="M57.776 19.832C58.2027 21.88 58.672 24.0133 59.184 26.232C59.7813 28.3653 60.08 30.5413 60.08 32.76C60.4213 33.784 60.592 35.0213 60.592 36.472C60.6773 37.8373 60.72 38.9893 60.72 39.928C60.72 41.0373 60.6773 42.0187 60.592 42.872C60.592 43.64 60.4213 44.6213 60.08 45.816C60.08 46.84 60.0373 48.0347 59.952 49.4C59.8667 50.7653 59.568 51.96 59.056 52.984C58.8 53.5813 58.672 54.3493 58.672 55.288C58.672 56.2267 58.4587 57.1653 58.032 58.104L56.496 61.688C55.8987 63.1387 55.216 64.5893 54.448 66.04C53.7653 67.4053 53.0827 68.5573 52.4 69.496C52.2293 69.8373 51.888 70.264 51.376 70.776C50.9493 71.288 50.48 71.8427 49.968 72.44C49.456 73.0373 48.9013 73.592 48.304 74.104C47.792 74.616 47.3653 75.0427 47.024 75.384C46.256 76.152 45.488 76.8347 44.72 77.432C43.952 78.1147 43.056 78.6693 42.032 79.096C41.6907 79.2667 41.3493 79.3947 41.008 79.48C40.6667 79.6507 40.2827 79.7787 39.856 79.864C38.7467 80.0347 37.7227 80.1627 36.784 80.248C35.8453 80.4187 34.9067 80.5467 33.968 80.632C33.3707 80.632 32.56 80.632 31.536 80.632C30.5973 80.632 29.616 80.5893 28.592 80.504C27.568 80.504 26.6293 80.4613 25.776 80.376C24.9227 80.2907 24.368 80.2053 24.112 80.12C22.576 79.5227 21.1253 78.9253 19.76 78.328C18.48 77.7307 17.2853 76.8347 16.176 75.64L10.8 71.16C8.92267 69.624 7.42933 67.8747 6.32 65.912C5.21067 63.864 4.31467 61.7307 3.632 59.512C3.20533 58.488 2.94933 57.5493 2.864 56.696C2.77867 55.8427 2.52267 55.0747 2.096 54.392C1.66933 51.9173 1.28533 49.656 0.944 47.608C0.688 45.56 0.602667 43.4267 0.688 41.208C0.773334 40.184 0.816 39.032 0.816 37.752C0.816 36.472 0.901333 35.2347 1.072 34.04C1.15733 33.784 1.28533 33.144 1.456 32.12C1.62667 31.096 1.79733 30.0293 1.968 28.92C2.13867 27.7253 2.30933 26.616 2.48 25.592C2.65067 24.4827 2.77867 23.8 2.864 23.544C3.632 21.0693 4.4 18.8507 5.168 16.888C6.02133 14.84 7.13067 13.048 8.496 11.512L12.208 7.416C12.6347 6.98933 13.1467 6.60533 13.744 6.264C14.4267 5.83733 15.024 5.45333 15.536 5.112L18.352 3.448C19.2053 2.85066 20.4427 2.33866 22.064 1.91199C23.6853 1.4 25.0507 1.05866 26.16 0.887993C27.2693 0.717328 28.464 0.58933 29.744 0.503998C31.1093 0.418666 32.4747 0.375999 33.84 0.375999C35.0347 0.375999 36.016 0.503998 36.784 0.759995C37.6373 1.016 38.576 1.31466 39.6 1.656C39.9413 1.74133 40.4533 1.912 41.136 2.168C41.8187 2.33866 42.544 2.63733 43.312 3.064C44.1653 3.40533 45.0187 3.87466 45.872 4.472C46.7253 4.984 47.4507 5.53866 48.048 6.13599C48.56 6.73333 49.2853 7.37333 50.224 8.056C51.248 8.65333 51.9733 9.336 52.4 10.104C52.5707 10.4453 52.784 10.7867 53.04 11.128C53.3813 11.4693 53.68 11.8107 53.936 12.152C54.6187 13.176 55.4293 14.456 56.368 15.992C57.3067 17.528 57.776 18.808 57.776 19.832ZM31.024 48.632C31.3653 48.632 31.5787 48.5467 31.664 48.376C31.7493 48.2053 32.0053 48.0773 32.432 47.992C33.0293 47.9067 33.456 47.6507 33.712 47.224C33.968 46.712 34.3093 46.2427 34.736 45.816C35.0773 43.9387 35.248 42.232 35.248 40.696C35.3333 39.16 35.376 37.4533 35.376 35.576C35.376 34.8933 35.2053 34.2533 34.864 33.656C34.5227 32.9733 33.968 32.4613 33.2 32.12C32.432 31.6933 31.8347 31.48 31.408 31.48C30.9813 31.48 30.4267 31.6933 29.744 32.12C29.5733 32.12 29.4027 32.1627 29.232 32.248C29.0613 32.3333 28.8907 32.4187 28.72 32.504L28.208 32.76C27.7813 33.528 27.3973 34.2533 27.056 34.936C26.7147 35.6187 26.544 36.3013 26.544 36.984V43.384C26.7147 44.7493 27.056 45.816 27.568 46.584C28.08 47.352 28.8053 48.0347 29.744 48.632H31.024ZM85.01 42.36C85.01 42.4453 85.3087 42.488 85.906 42.488C86.5033 42.4027 87.186 42.36 87.954 42.36H102.29C102.973 42.36 103.57 42.232 104.082 41.976C104.679 41.72 105.319 41.592 106.002 41.592V40.824C106.173 40.056 106.301 38.904 106.386 37.368C106.471 35.832 106.514 34.68 106.514 33.912C106.514 33.2293 106.471 32.5467 106.386 31.864C106.301 31.096 106.258 30.3707 106.258 29.688C106.343 29.0053 106.343 28.3653 106.258 27.768C106.173 27.0853 106.13 26.4027 106.13 25.72V19.832C106.13 19.576 106.13 19.0213 106.13 18.168C106.215 17.2293 106.215 16.2907 106.13 15.352C106.13 13.9867 106.173 12.8773 106.258 12.024C106.343 11.0853 106.301 9.848 106.13 8.312C106.215 7.97066 106.215 7.672 106.13 7.416C106.045 7.07467 106.002 6.69067 106.002 6.264C106.002 6.09333 105.959 5.96533 105.874 5.88C105.874 5.70933 105.874 5.53866 105.874 5.368C105.874 5.02666 105.874 4.68533 105.874 4.34399C105.874 4.00266 105.917 3.61866 106.002 3.19199H119.698C120.125 3.61866 120.338 4.00266 120.338 4.34399C120.423 4.6 120.466 4.94133 120.466 5.368C120.466 6.56266 120.423 7.71466 120.338 8.824C120.338 9.848 120.338 10.8293 120.338 11.768C120.338 13.304 120.21 14.968 119.954 16.76C119.783 18.4667 119.698 20.2587 119.698 22.136C119.698 22.8187 119.741 23.672 119.826 24.696C119.911 25.72 119.869 26.6587 119.698 27.512C119.442 29.6453 119.271 31.6933 119.186 33.656C119.186 35.6187 119.186 37.5813 119.186 39.544C119.186 41.2507 119.271 43 119.442 44.792C119.613 46.4987 119.698 48.0773 119.698 49.528C119.527 50.1253 119.442 51.192 119.442 52.728C119.442 54.1787 119.442 55.7573 119.442 57.464C119.527 59.1707 119.57 60.792 119.57 62.328C119.655 63.864 119.698 64.9307 119.698 65.528V78.584C117.821 78.584 116.114 78.6693 114.578 78.84C113.127 79.096 111.634 79.224 110.098 79.224C109.415 79.224 108.818 79.224 108.306 79.224C107.879 79.3093 107.325 79.5653 106.642 79.992L106.002 79.224C106.087 78.6267 106.13 77.816 106.13 76.792C106.13 75.768 106.087 74.7013 106.002 73.592C106.002 72.3973 106.002 71.288 106.002 70.264C106.002 69.24 106.002 68.4293 106.002 67.832C106.087 65.8693 106.13 63.9067 106.13 61.944C106.215 59.896 106.258 57.8907 106.258 55.928C106.258 56.0133 106.215 55.8 106.13 55.288C106.13 54.776 106.13 54.2213 106.13 53.624C106.13 52.9413 106.087 52.3013 106.002 51.704C106.002 51.1067 106.002 50.7227 106.002 50.552C106.002 50.2107 105.874 50.0827 105.618 50.168C105.447 50.2533 105.191 50.2533 104.85 50.168C103.911 49.9973 103.143 49.9973 102.546 50.168C101.949 50.2533 101.223 50.296 100.37 50.296C99.858 50.296 99.218 50.3387 98.45 50.424C97.682 50.424 96.8713 50.4667 96.018 50.552C95.25 50.552 94.482 50.5947 93.714 50.68C92.946 50.7653 92.306 50.808 91.794 50.808L86.162 50.936C85.7353 50.936 85.3513 50.936 85.01 50.936C84.754 50.8507 84.4553 50.8507 84.114 50.936C83.858 50.936 83.73 51.1067 83.73 51.448C83.73 51.6187 83.7727 51.7467 83.858 51.832C83.858 52.856 83.9007 53.9227 83.986 55.032C84.0713 56.056 84.114 57.1653 84.114 58.36V61.816C84.114 64.0347 84.0713 66.2107 83.986 68.344C83.986 70.4773 83.8153 72.6533 83.474 74.872V78.584C83.0473 78.9253 82.6207 79.096 82.194 79.096C81.8527 79.1813 81.3407 79.224 80.658 79.224C79.9753 79.224 79.122 79.224 78.098 79.224C77.074 79.3093 76.2207 79.5653 75.538 79.992H71.826C71.3993 79.992 71.0153 79.9067 70.674 79.736C70.3327 79.6507 69.778 79.48 69.01 79.224V70.52C69.01 68.3867 68.9673 67.0213 68.882 66.424C68.882 65.8267 68.882 65.3573 68.882 65.016C68.7113 64.5893 68.6687 64.0773 68.754 63.48C68.8393 62.8827 68.882 62.456 68.882 62.2C69.0527 60.408 69.0527 58.5733 68.882 56.696C68.7967 54.7333 68.7113 53.112 68.626 51.832C68.5407 51.064 68.498 50.3387 68.498 49.656C68.498 48.888 68.498 48.12 68.498 47.352C68.498 45.9013 68.5407 44.4933 68.626 43.128C68.7967 41.6773 68.7967 40.2267 68.626 38.776C68.4553 36.8987 68.498 35.3627 68.754 34.168C68.8393 33.8267 68.7967 33.2293 68.626 32.376C68.4553 31.4373 68.37 30.456 68.37 29.432C68.37 28.0667 68.4127 26.8293 68.498 25.72C68.5833 24.6107 68.626 23.544 68.626 22.52C68.7113 21.496 68.754 20.4293 68.754 19.32C68.8393 18.2107 68.8393 16.9733 68.754 15.608C68.754 15.2667 68.754 14.712 68.754 13.944C68.754 13.0907 68.754 12.1947 68.754 11.256C68.8393 10.3173 68.882 9.464 68.882 8.696C68.9673 7.84267 69.01 7.24533 69.01 6.904C69.01 6.136 68.9247 5.58133 68.754 5.24C68.5833 4.81333 68.498 4.42933 68.498 4.088V3.19199H84.114C84.4553 3.53333 84.7113 3.87466 84.882 4.216C84.9673 4.38667 85.01 4.51467 85.01 4.6C85.0953 6.30666 85.0953 7.97066 85.01 9.592C84.9247 11.2133 84.8393 12.8773 84.754 14.584C84.754 16.888 84.7967 19.1493 84.882 21.368C85.0527 23.5867 85.1807 25.8053 85.266 28.024C85.266 29.2187 85.2233 30.456 85.138 31.736C85.138 33.016 85.138 34.2533 85.138 35.448C85.138 36.6427 85.0953 37.9653 85.01 39.416C84.9247 40.8667 84.9247 41.848 85.01 42.36Z" fill="white"/>
</svg>
