<svg width="31" height="21" viewBox="0 0 31 21" fill="none" xmlns="http://www.w3.org/2000/svg">
<path d="M14.944 5.208C15.0507 5.72 15.168 6.25333 15.296 6.808C15.4453 7.34133 15.52 7.88533 15.52 8.44C15.6053 8.696 15.648 9.00533 15.648 9.368C15.6693 9.70933 15.68 9.99733 15.68 10.232C15.68 10.5093 15.6693 10.7547 15.648 10.968C15.648 11.16 15.6053 11.4053 15.52 11.704C15.52 11.96 15.5093 12.2587 15.488 12.6C15.4667 12.9413 15.392 13.24 15.264 13.496C15.2 13.6453 15.168 13.8373 15.168 14.072C15.168 14.3067 15.1147 14.5413 15.008 14.776L14.624 15.672C14.4747 16.0347 14.304 16.3973 14.112 16.76C13.9413 17.1013 13.7707 17.3893 13.6 17.624C13.5573 17.7093 13.472 17.816 13.344 17.944C13.2373 18.072 13.12 18.2107 12.992 18.36C12.864 18.5093 12.7253 18.648 12.576 18.776C12.448 18.904 12.3413 19.0107 12.256 19.096C12.064 19.288 11.872 19.4587 11.68 19.608C11.488 19.7787 11.264 19.9173 11.008 20.024C10.9227 20.0667 10.8373 20.0987 10.752 20.12C10.6667 20.1627 10.5707 20.1947 10.464 20.216C10.1867 20.2587 9.93067 20.2907 9.696 20.312C9.46133 20.3547 9.22667 20.3867 8.992 20.408C8.84267 20.408 8.64 20.408 8.384 20.408C8.14933 20.408 7.904 20.3973 7.648 20.376C7.392 20.376 7.15733 20.3653 6.944 20.344C6.73067 20.3227 6.592 20.3013 6.528 20.28C6.144 20.1307 5.78133 19.9813 5.44 19.832C5.12 19.6827 4.82133 19.4587 4.544 19.16L3.2 18.04C2.73067 17.656 2.35733 17.2187 2.08 16.728C1.80267 16.216 1.57867 15.6827 1.408 15.128C1.30133 14.872 1.23733 14.6373 1.216 14.424C1.19467 14.2107 1.13067 14.0187 1.024 13.848C0.917333 13.2293 0.821333 12.664 0.736 12.152C0.672 11.64 0.650667 11.1067 0.672 10.552C0.693333 10.296 0.704 10.008 0.704 9.688C0.704 9.368 0.725333 9.05867 0.768 8.76C0.789333 8.696 0.821333 8.536 0.864 8.28C0.906667 8.024 0.949333 7.75733 0.992 7.48C1.03467 7.18133 1.07733 6.904 1.12 6.648C1.16267 6.37067 1.19467 6.2 1.216 6.136C1.408 5.51733 1.6 4.96267 1.792 4.472C2.00533 3.96 2.28267 3.512 2.624 3.128L3.552 2.104C3.65867 1.99733 3.78667 1.90133 3.936 1.816C4.10667 1.70933 4.256 1.61333 4.384 1.528L5.088 1.112C5.30133 0.962666 5.61067 0.834665 6.016 0.727999C6.42133 0.599999 6.76267 0.514666 7.04 0.471998C7.31733 0.429332 7.616 0.397333 7.936 0.375999C8.27733 0.354666 8.61867 0.344 8.96 0.344C9.25867 0.344 9.504 0.375999 9.696 0.439999C9.90933 0.503999 10.144 0.578666 10.4 0.664C10.4853 0.685333 10.6133 0.727999 10.784 0.792C10.9547 0.834666 11.136 0.909332 11.328 1.016C11.5413 1.10133 11.7547 1.21867 11.968 1.368C12.1813 1.496 12.3627 1.63467 12.512 1.784C12.64 1.93333 12.8213 2.09333 13.056 2.264C13.312 2.41333 13.4933 2.584 13.6 2.776C13.6427 2.86133 13.696 2.94667 13.76 3.032C13.8453 3.11733 13.92 3.20267 13.984 3.288C14.1547 3.544 14.3573 3.864 14.592 4.248C14.8267 4.632 14.944 4.952 14.944 5.208ZM8.256 12.408C8.34133 12.408 8.39467 12.3867 8.416 12.344C8.43733 12.3013 8.50133 12.2693 8.608 12.248C8.75733 12.2267 8.864 12.1627 8.928 12.056C8.992 11.928 9.07733 11.8107 9.184 11.704C9.26933 11.2347 9.312 10.808 9.312 10.424C9.33333 10.04 9.344 9.61333 9.344 9.144C9.344 8.97333 9.30133 8.81333 9.216 8.664C9.13067 8.49333 8.992 8.36533 8.8 8.28C8.608 8.17333 8.45867 8.12 8.352 8.12C8.24533 8.12 8.10667 8.17333 7.936 8.28C7.89333 8.28 7.85067 8.29067 7.808 8.312C7.76533 8.33333 7.72267 8.35467 7.68 8.376L7.552 8.44C7.44533 8.632 7.34933 8.81333 7.264 8.984C7.17867 9.15467 7.136 9.32533 7.136 9.496V11.096C7.17867 11.4373 7.264 11.704 7.392 11.896C7.52 12.088 7.70133 12.2587 7.936 12.408H8.256ZM21.7525 10.84C21.7525 10.8613 21.8272 10.872 21.9765 10.872C22.1258 10.8507 22.2965 10.84 22.4885 10.84H26.0725C26.2432 10.84 26.3925 10.808 26.5205 10.744C26.6698 10.68 26.8298 10.648 27.0005 10.648V10.456C27.0432 10.264 27.0752 9.976 27.0965 9.592C27.1178 9.208 27.1285 8.92 27.1285 8.728C27.1285 8.55733 27.1178 8.38667 27.0965 8.216C27.0752 8.024 27.0645 7.84267 27.0645 7.672C27.0858 7.50133 27.0858 7.34133 27.0645 7.192C27.0432 7.02133 27.0325 6.85067 27.0325 6.68V5.208C27.0325 5.144 27.0325 5.00533 27.0325 4.792C27.0538 4.55733 27.0538 4.32267 27.0325 4.088C27.0325 3.74667 27.0432 3.46933 27.0645 3.256C27.0858 3.02133 27.0752 2.712 27.0325 2.328C27.0538 2.24267 27.0538 2.168 27.0325 2.104C27.0112 2.01867 27.0005 1.92267 27.0005 1.816C27.0005 1.77333 26.9898 1.74133 26.9685 1.72C26.9685 1.67733 26.9685 1.63467 26.9685 1.592C26.9685 1.50667 26.9685 1.42133 26.9685 1.336C26.9685 1.25067 26.9792 1.15466 27.0005 1.048H30.4245C30.5312 1.15466 30.5845 1.25067 30.5845 1.336C30.6058 1.4 30.6165 1.48533 30.6165 1.592C30.6165 1.89067 30.6058 2.17867 30.5845 2.456C30.5845 2.712 30.5845 2.95733 30.5845 3.192C30.5845 3.576 30.5525 3.992 30.4885 4.44C30.4458 4.86667 30.4245 5.31467 30.4245 5.784C30.4245 5.95467 30.4352 6.168 30.4565 6.424C30.4778 6.68 30.4672 6.91467 30.4245 7.128C30.3605 7.66133 30.3178 8.17333 30.2965 8.664C30.2965 9.15467 30.2965 9.64533 30.2965 10.136C30.2965 10.5627 30.3178 11 30.3605 11.448C30.4032 11.8747 30.4245 12.2693 30.4245 12.632C30.3818 12.7813 30.3605 13.048 30.3605 13.432C30.3605 13.7947 30.3605 14.1893 30.3605 14.616C30.3818 15.0427 30.3925 15.448 30.3925 15.832C30.4138 16.216 30.4245 16.4827 30.4245 16.632V19.896C29.9552 19.896 29.5285 19.9173 29.1445 19.96C28.7818 20.024 28.4085 20.056 28.0245 20.056C27.8538 20.056 27.7045 20.056 27.5765 20.056C27.4698 20.0773 27.3312 20.1413 27.1605 20.248L27.0005 20.056C27.0218 19.9067 27.0325 19.704 27.0325 19.448C27.0325 19.192 27.0218 18.9253 27.0005 18.648C27.0005 18.3493 27.0005 18.072 27.0005 17.816C27.0005 17.56 27.0005 17.3573 27.0005 17.208C27.0218 16.7173 27.0325 16.2267 27.0325 15.736C27.0538 15.224 27.0645 14.7227 27.0645 14.232C27.0645 14.2533 27.0538 14.2 27.0325 14.072C27.0325 13.944 27.0325 13.8053 27.0325 13.656C27.0325 13.4853 27.0218 13.3253 27.0005 13.176C27.0005 13.0267 27.0005 12.9307 27.0005 12.888C27.0005 12.8027 26.9685 12.7707 26.9045 12.792C26.8618 12.8133 26.7978 12.8133 26.7125 12.792C26.4778 12.7493 26.2858 12.7493 26.1365 12.792C25.9872 12.8133 25.8058 12.824 25.5925 12.824C25.4645 12.824 25.3045 12.8347 25.1125 12.856C24.9205 12.856 24.7178 12.8667 24.5045 12.888C24.3125 12.888 24.1205 12.8987 23.9285 12.92C23.7365 12.9413 23.5765 12.952 23.4485 12.952L22.0405 12.984C21.9338 12.984 21.8378 12.984 21.7525 12.984C21.6885 12.9627 21.6138 12.9627 21.5285 12.984C21.4645 12.984 21.4325 13.0267 21.4325 13.112C21.4325 13.1547 21.4432 13.1867 21.4645 13.208C21.4645 13.464 21.4752 13.7307 21.4965 14.008C21.5178 14.264 21.5285 14.5413 21.5285 14.84V15.704C21.5285 16.2587 21.5178 16.8027 21.4965 17.336C21.4965 17.8693 21.4538 18.4133 21.3685 18.968V19.896C21.2618 19.9813 21.1552 20.024 21.0485 20.024C20.9632 20.0453 20.8352 20.056 20.6645 20.056C20.4938 20.056 20.2805 20.056 20.0245 20.056C19.7685 20.0773 19.5552 20.1413 19.3845 20.248H18.4565C18.3498 20.248 18.2538 20.2267 18.1685 20.184C18.0832 20.1627 17.9445 20.12 17.7525 20.056V17.88C17.7525 17.3467 17.7418 17.0053 17.7205 16.856C17.7205 16.7067 17.7205 16.5893 17.7205 16.504C17.6778 16.3973 17.6672 16.2693 17.6885 16.12C17.7098 15.9707 17.7205 15.864 17.7205 15.8C17.7632 15.352 17.7632 14.8933 17.7205 14.424C17.6992 13.9333 17.6778 13.528 17.6565 13.208C17.6352 13.016 17.6245 12.8347 17.6245 12.664C17.6245 12.472 17.6245 12.28 17.6245 12.088C17.6245 11.7253 17.6352 11.3733 17.6565 11.032C17.6992 10.6693 17.6992 10.3067 17.6565 9.944C17.6138 9.47467 17.6245 9.09067 17.6885 8.792C17.7098 8.70667 17.6992 8.55733 17.6565 8.344C17.6138 8.10933 17.5925 7.864 17.5925 7.608C17.5925 7.26667 17.6032 6.95733 17.6245 6.68C17.6458 6.40267 17.6565 6.136 17.6565 5.88C17.6778 5.624 17.6885 5.35733 17.6885 5.08C17.7098 4.80267 17.7098 4.49333 17.6885 4.152C17.6885 4.06667 17.6885 3.928 17.6885 3.736C17.6885 3.52267 17.6885 3.29867 17.6885 3.064C17.7098 2.82933 17.7205 2.616 17.7205 2.424C17.7418 2.21067 17.7525 2.06133 17.7525 1.976C17.7525 1.784 17.7312 1.64533 17.6885 1.56C17.6458 1.45333 17.6245 1.35733 17.6245 1.272V1.048H21.5285C21.6138 1.13333 21.6778 1.21867 21.7205 1.304C21.7418 1.34667 21.7525 1.37867 21.7525 1.4C21.7738 1.82667 21.7738 2.24267 21.7525 2.648C21.7312 3.05333 21.7098 3.46933 21.6885 3.896C21.6885 4.472 21.6992 5.03733 21.7205 5.592C21.7632 6.14667 21.7952 6.70133 21.8165 7.256C21.8165 7.55467 21.8058 7.864 21.7845 8.184C21.7845 8.504 21.7845 8.81333 21.7845 9.112C21.7845 9.41067 21.7738 9.74133 21.7525 10.104C21.7312 10.4667 21.7312 10.712 21.7525 10.84Z" fill="#DF3D36"/>
</svg>
